<?xml version="1.0" standalone="no"?>
<!DOCTYPE svg PUBLIC "-//W3C//DTD SVG 20010904//EN"
 "http://www.w3.org/TR/2001/REC-SVG-20010904/DTD/svg10.dtd">
<svg version="1.0" xmlns="http://www.w3.org/2000/svg"
 width="260.000000pt" height="260.000000pt" viewBox="0 0 260.000000 260.000000"
 preserveAspectRatio="xMidYMid meet">
<metadata>
Created by potrace 1.11, written by Peter Selinger 2001-2013
</metadata>
<g transform="translate(0.000000,260.000000) scale(0.100000,-0.100000)"
fill="#000000" stroke="none">
<path d="M0 1300 l0 -1300 1300 0 1300 0 0 1300 0 1300 -1300 0 -1300 0 0
-1300z m653 421 l37 -12 0 -94 c0 -52 -2 -95 -5 -95 -3 0 -16 7 -28 15 -12 8
-51 22 -87 31 -147 37 -260 -14 -229 -105 12 -35 54 -64 171 -118 155 -73 214
-152 212 -283 -2 -133 -84 -221 -232 -250 -80 -16 -240 -8 -309 15 l-53 18 0
105 c0 100 1 104 18 89 33 -30 133 -69 193 -74 67 -6 142 16 159 47 18 34 11
79 -15 106 -13 13 -71 47 -128 75 -181 87 -232 148 -232 279 0 83 20 134 72
181 76 71 147 90 303 85 63 -2 132 -9 153 -15z m867 -81 l0 -80 -125 0 -125 0
0 -370 0 -370 -95 0 -95 0 0 370 0 370 -125 0 -125 0 0 80 0 80 345 0 345 0 0
-80z m369 13 c83 -282 171 -602 171 -620 0 -45 18 -22 34 45 9 37 54 195 99
352 l82 285 98 3 c53 1 97 0 97 -4 0 -4 -65 -206 -145 -450 l-146 -444 -108 0
-108 0 -16 43 c-61 170 -277 833 -277 850 0 4 45 7 100 7 l99 0 20 -67z"/>
</g>
</svg>
